# xmcd
#
# Track frame offsets:
#  150
#  15662
#  36311
#  51601
#  72131
#  92550
#  109801
#  131215
#  152584
#  181206
#
# Disc length: 2698 seconds
#
# Revision: 0
# Processed by: cddbd v1.5.1PL2 Copyright (c) Steve Scherf et al.
# Submitted via: Collectorz.com Music Collector 6.9
#
DISCID=860a880a
DTITLE=Houston Marchman - Vietnashville
DYEAR=1900
DGENRE=Alt Country
TTITLE0=South Texas Rain
TTITLE1=Vietnashville
TTITLE2=One More Mile
TTITLE3=San Miguel
TTITLE4=Damn This Road
TTITLE5=Uncle Bill Longley
TTITLE6=Policeman
TTITLE7=Too Much Whiskey
TTITLE8=The Rain
TTITLE9=Ballad of Caleb and Rae Dawn
EXTD=
EXTT0=
EXTT1=
EXTT2=
EXTT3=
EXTT4=
EXTT5=
EXTT6=
EXTT7=
EXTT8=
EXTT9=
PLAYORDER=
